<?xml version="1.0" encoding="UTF-8"?>
<svg width="273px" height="51px" viewBox="0 0 273 51" version="1.1" xmlns="http://www.w3.org/2000/svg" xmlns:xlink="http://www.w3.org/1999/xlink">
    <!-- Generator: Sketch 47.1 (45422) - http://www.bohemiancoding.com/sketch -->
    <title>Le SHOP</title>
    <desc>Created with Sketch.</desc>
    <defs></defs>
    <g id="Page-1" stroke="none" stroke-width="1" fill="none" fill-rule="evenodd">
        <g id="Desktop-HD" transform="translate(-1104.000000, -61.000000)" fill="#1D1D1D">
            <path d="M1111.216,99.2 C1111.216,106.76 1111.072,107.768 1106.896,108.2 L1104.736,108.416 C1104.304,108.848 1104.448,110 1104.88,110.216 C1108.912,110.072 1111.216,110 1114.24,110 L1120.864,110 C1128.28,110 1135.12,110.072 1138.792,110.216 C1139.8,108.272 1141.816,100.928 1141.816,100.136 C1141.816,99.632 1140.448,99.344 1140.016,99.704 C1138.576,103.376 1136.704,105.968 1135.264,106.832 C1134.112,107.48 1132.6,107.768 1126.48,107.768 C1120.792,107.768 1119.424,106.904 1118.632,106.112 C1117.336,104.744 1117.12,102.872 1117.12,98.336 L1117.12,73.28 C1117.12,65.72 1117.264,64.568 1121.512,64.208 L1123.24,64.064 C1123.672,63.776 1123.528,62.48 1123.096,62.264 C1119.496,62.408 1117.048,62.48 1114.24,62.48 C1111.36,62.48 1108.912,62.408 1104.88,62.264 C1104.448,62.48 1104.304,63.776 1104.736,64.064 L1106.536,64.208 C1111.072,64.568 1111.216,65.72 1111.216,73.28 L1111.216,99.2 Z M1164.496,91.568 L1151.176,91.568 C1149.304,91.568 1149.232,91.712 1149.232,93.512 C1149.232,100.784 1153.48,106.976 1161.184,106.976 C1163.56,106.976 1165.576,106.256 1167.808,103.448 C1168.528,103.232 1169.032,103.664 1169.104,104.312 C1166.728,109.208 1161.544,111.008 1157.8,111.008 C1153.12,111.008 1149.448,108.992 1147.36,106.256 C1145.2,103.448 1144.336,100.064 1144.336,96.896 C1144.336,88.04 1150.168,80.624 1158.808,80.624 C1165,80.624 1169.032,84.872 1169.032,89.192 C1169.032,90.2 1168.888,90.776 1168.744,91.064 C1168.528,91.496 1167.52,91.568 1164.496,91.568 Z M1150.528,89.408 L1155.64,89.408 C1160.968,89.408 1162.552,89.12 1163.128,88.688 C1163.344,88.544 1163.56,88.256 1163.56,87.32 C1163.56,85.304 1162.192,82.784 1158.016,82.784 C1153.768,82.784 1150.096,86.672 1150.024,89.048 C1150.024,89.192 1150.024,89.408 1150.528,89.408 Z M1219.792,97.832 C1219.792,90.992 1215.328,86.816 1210.792,84.008 L1205.032,80.408 C1202.368,78.752 1198.912,75.728 1198.912,71.552 C1198.912,68.24 1200.424,63.56 1207.48,63.56 C1214.392,63.56 1216.336,68.24 1217.272,71.696 C1217.632,72.128 1218.784,71.912 1219.072,71.48 C1219.072,68.456 1218.424,64.424 1217.776,62.696 C1217.2,62.696 1216.192,62.552 1215.256,62.264 C1213.384,61.76 1210.792,61.328 1208.56,61.328 C1199.2,61.328 1193.872,66.872 1193.872,73.712 C1193.872,79.616 1198.048,83.72 1201.648,86.096 L1208.488,90.56 C1213.744,93.944 1214.392,97.472 1214.392,100.64 C1214.392,104.96 1211.44,108.92 1205.392,108.92 C1197.04,108.92 1194.088,101.864 1193.008,98.192 C1192.72,97.76 1191.64,97.904 1191.28,98.408 C1191.424,101.792 1192.36,106.904 1193.224,108.488 C1194.592,109.28 1198.408,111.152 1204.456,111.152 C1213.816,111.152 1219.792,105.752 1219.792,97.832 Z M1262.848,86.744 C1266.304,86.744 1266.448,86.888 1266.448,89.048 L1266.448,99.2 C1266.448,106.76 1266.448,107.48 1262.056,108.2 L1260.688,108.416 C1260.256,108.848 1260.4,110 1260.832,110.216 C1264,110.072 1266.592,110 1269.544,110 C1272.352,110 1274.8,110.072 1278.256,110.216 C1278.688,110 1278.832,108.704 1278.4,108.416 L1276.672,108.2 C1272.496,107.696 1272.352,106.76 1272.352,99.2 L1272.352,73.28 C1272.352,65.72 1272.496,64.64 1276.672,64.208 L1278.184,64.064 C1278.616,63.776 1278.472,62.48 1278.04,62.264 C1274.8,62.408 1272.352,62.48 1269.544,62.48 C1266.592,62.48 1264.144,62.408 1260.832,62.264 C1260.4,62.48 1260.256,63.776 1260.688,64.064 L1262.056,64.208 C1266.304,64.64 1266.448,65.72 1266.448,73.28 L1266.448,81.56 C1266.448,83.792 1266.304,83.864 1262.848,83.864 L1242.256,83.864 C1238.8,83.864 1238.656,83.792 1238.656,81.56 L1238.656,73.28 C1238.656,65.72 1238.8,64.64 1242.976,64.208 L1244.344,64.064 C1244.776,63.776 1244.632,62.48 1244.2,62.264 C1241.104,62.408 1238.656,62.48 1235.848,62.48 C1232.752,62.48 1230.304,62.336 1226.776,62.264 C1226.344,62.48 1226.2,63.776 1226.632,64.064 L1228.504,64.208 C1232.248,64.496 1232.752,65.72 1232.752,73.28 L1232.752,99.2 C1232.752,106.76 1232.608,107.48 1228.576,108.2 L1227.352,108.416 C1226.92,108.848 1227.064,110 1227.496,110.216 C1230.304,110.144 1232.752,110 1235.848,110 C1238.656,110 1241.104,110.072 1244.992,110.216 C1245.424,110 1245.568,108.704 1245.136,108.416 L1243.048,108.2 C1239.016,107.768 1238.656,106.76 1238.656,99.2 L1238.656,89.048 C1238.656,86.888 1238.8,86.744 1242.256,86.744 L1262.848,86.744 Z M1310.512,111.152 C1294.528,111.152 1284.88,99.704 1284.88,86.744 C1284.88,72.344 1295.68,61.328 1310.512,61.328 C1327.144,61.328 1335.496,73.352 1335.496,86.024 C1335.496,100.568 1324.408,111.152 1310.512,111.152 Z M1311.448,108.92 C1320.088,108.92 1328.296,102.44 1328.296,88.256 C1328.296,76.376 1323.04,63.56 1309.288,63.56 C1301.8,63.56 1292.08,68.672 1292.08,84.44 C1292.08,95.096 1297.264,108.92 1311.448,108.92 Z M1353.928,67.088 C1353.928,64.784 1354,64.496 1357.816,64.496 C1365.304,64.496 1369.408,69.032 1369.408,76.016 C1369.408,82.28 1366.6,86.672 1358.824,88.112 C1358.392,88.256 1358.392,89.336 1358.896,89.552 C1361.848,89.552 1365.664,88.904 1368.832,87.392 C1371.928,85.88 1376.032,82.568 1376.032,75.944 C1376.032,70.976 1373.584,67.232 1370.272,65.144 C1366.888,63.056 1362.424,62.264 1356.448,62.264 C1350.472,62.264 1346.008,62.336 1342.192,62.84 C1341.616,63.128 1341.544,64.208 1342.048,64.64 L1344.64,64.928 C1347.88,65.288 1348.024,66.512 1348.024,72.632 L1348.024,99.2 C1348.024,106.76 1347.88,107.624 1343.704,108.2 L1342.192,108.416 C1341.76,108.848 1341.904,110 1342.336,110.216 C1345.504,110.072 1348.096,110 1351.12,110 C1354,110 1356.376,110.072 1360.48,110.216 C1360.912,110 1361.056,108.776 1360.624,108.416 L1358.68,108.2 C1354.072,107.696 1353.928,106.76 1353.928,99.2 L1353.928,67.088 Z" id="Le-SHOP"></path>
        </g>
    </g>
</svg>